<svg width="107" height="45" viewBox="0 0 107 45" fill="none" xmlns="http://www.w3.org/2000/svg">
<path d="M44 34L34.5 34L29.75 34L27.5 31.5L25 29L25 24.5L25 15L34.5 15V15C34.5 20.2467 38.7533 24.5 44 24.5V24.5L44 34Z" fill="#1677FF"/>
<path d="M6 10H15.5H20.25L22.5 12.5L25 15V19.5V24.25V29H15.5V29C15.5 23.7533 11.2467 19.5 6 19.5V19.5V10Z" fill="white"/>
<path d="M49.85 32L47.375 13.625H49.875L50.95 23.175L51 23.775H51.2L51.275 23.175L52.425 13.625H54.375L55.525 23.175L55.6 23.775H55.8L55.85 23.175L56.925 13.625H59.425L56.95 32H54.85L53.6 23.3L53.45 22.225H53.35L53.2 23.3L51.95 32H49.85ZM63.5305 32.175C62.5221 32.175 61.7305 31.8375 61.1555 31.1625C60.5805 30.4792 60.293 29.6167 60.293 28.575V21.725C60.293 20.6833 60.5805 19.825 61.1555 19.15C61.7305 18.4667 62.5221 18.125 63.5305 18.125C64.5305 18.125 65.318 18.4667 65.893 19.15C66.4763 19.825 66.768 20.6833 66.768 21.725V28.575C66.768 29.6167 66.4763 30.4792 65.893 31.1625C65.318 31.8375 64.5305 32.175 63.5305 32.175ZM63.5305 29.975C63.8555 29.975 64.0805 29.8458 64.2055 29.5875C64.3305 29.3208 64.393 28.9833 64.393 28.575V21.725C64.393 21.3083 64.3305 20.9708 64.2055 20.7125C64.0805 20.4542 63.8555 20.325 63.5305 20.325C63.2055 20.325 62.9805 20.4542 62.8555 20.7125C62.7305 20.9708 62.668 21.3083 62.668 21.725V28.575C62.668 28.9917 62.7305 29.3292 62.8555 29.5875C62.9805 29.8458 63.2055 29.975 63.5305 29.975ZM67.8887 32V18.325H70.4137V19.85C70.4637 19.5167 70.6178 19.2208 70.8762 18.9625C71.1345 18.7042 71.447 18.5 71.8137 18.35C72.1887 18.2 72.5637 18.125 72.9387 18.125V20.925C72.8303 20.8833 72.7137 20.8583 72.5887 20.85C72.472 20.8333 72.3553 20.825 72.2387 20.825C71.6887 20.825 71.247 20.975 70.9137 21.275C70.5803 21.575 70.4137 21.9833 70.4137 22.5V32H67.8887ZM73.8213 32V13.625H76.3463V21.9V22.35H76.4713L76.6213 21.9L77.8463 18.325H80.2463L78.2963 22.775L80.5963 32H78.0463L76.7963 26.475L76.7713 26.275H76.7463L76.3463 27.275V32H73.8213ZM81.7891 32V13.625H85.2141L86.6891 23.15L86.8141 24.125H86.8641L86.9891 23.15L88.4641 13.625H91.8891V32H89.3891V19.675H89.2391L89.1391 20.45L87.5391 32H86.1391L84.5391 20.45L84.4391 19.675H84.2891V32H81.7891ZM96.6484 32.2C95.6401 32.2 94.8443 31.8542 94.2609 31.1625C93.6859 30.4625 93.3984 29.6083 93.3984 28.6V21.725C93.3984 20.6583 93.6859 19.7917 94.2609 19.125C94.8359 18.4583 95.6401 18.125 96.6734 18.125C97.3484 18.125 97.9276 18.2792 98.4109 18.5875C98.9026 18.8958 99.2776 19.3167 99.5359 19.85C99.7943 20.375 99.9234 20.975 99.9234 21.65V25.625H95.7484V28.6C95.7484 28.9417 95.8234 29.2583 95.9734 29.55C96.1318 29.8333 96.3651 29.975 96.6734 29.975C96.9984 29.975 97.2276 29.8417 97.3609 29.575C97.5026 29.3083 97.5734 28.9833 97.5734 28.6V27.1H99.9234V28.675C99.9234 29.7333 99.6359 30.5875 99.0609 31.2375C98.4943 31.8792 97.6901 32.2 96.6484 32.2ZM95.7484 23.65H97.5734V21.725C97.5734 21.35 97.5068 21.025 97.3734 20.75C97.2484 20.4667 97.0151 20.325 96.6734 20.325C96.3568 20.325 96.1234 20.4708 95.9734 20.7625C95.8234 21.0458 95.7484 21.3667 95.7484 21.725V23.65Z" fill="white"/>
</svg>
